<svg width="281" height="72" viewBox="0 0 281 72" fill="none" xmlns="http://www.w3.org/2000/svg">
<path d="M47.5286 24.2062V49.8H42.2552L31.972 32.6437V49.8H26.6985V24.2062H31.972L42.2727 41.3801V24.2062H47.5286ZM57.1438 30.7805V49.8H52.0638V30.7805H57.1438ZM51.7473 25.8234C51.7473 25.0851 52.0052 24.4758 52.5208 23.9953C53.0364 23.5148 53.7278 23.2746 54.595 23.2746C55.4505 23.2746 56.136 23.5148 56.6516 23.9953C57.179 24.4758 57.4427 25.0851 57.4427 25.8234C57.4427 26.5617 57.179 27.1711 56.6516 27.6516C56.136 28.132 55.4505 28.3723 54.595 28.3723C53.7278 28.3723 53.0364 28.132 52.5208 27.6516C52.0052 27.1711 51.7473 26.5617 51.7473 25.8234ZM70.6438 30.7805V34.3664H59.5696V30.7805H70.6438ZM62.3118 26.0871H67.3743V44.0695C67.3743 44.6203 67.4446 45.0422 67.5852 45.3351C67.7376 45.6281 67.9602 45.8332 68.2532 45.9504C68.5462 46.0558 68.9153 46.1086 69.3606 46.1086C69.677 46.1086 69.9583 46.0969 70.2044 46.0734C70.4622 46.0383 70.679 46.0031 70.8548 45.968L70.8723 49.6945C70.4388 49.8351 69.97 49.9465 69.4661 50.0285C68.9622 50.1105 68.4055 50.1516 67.7962 50.1516C66.6829 50.1516 65.7102 49.9699 64.8782 49.6066C64.0579 49.2316 63.4251 48.634 62.9798 47.8137C62.5345 46.9933 62.3118 45.9152 62.3118 44.5793V26.0871ZM82.2805 50.1516C80.804 50.1516 79.4798 49.9172 78.3079 49.4484C77.136 48.968 76.1399 48.3058 75.3196 47.4621C74.511 46.6183 73.8899 45.6398 73.4563 44.5266C73.0227 43.4016 72.8059 42.2062 72.8059 40.9406V40.2375C72.8059 38.7961 73.011 37.4777 73.4212 36.2824C73.8313 35.0871 74.4173 34.05 75.179 33.1711C75.9524 32.2922 76.8899 31.6183 77.9915 31.1496C79.093 30.6691 80.3352 30.4289 81.718 30.4289C83.0657 30.4289 84.261 30.6516 85.304 31.0969C86.347 31.5422 87.22 32.175 87.9231 32.9953C88.638 33.8156 89.177 34.8 89.5403 35.9484C89.9036 37.0851 90.0852 38.3508 90.0852 39.7453V41.8547H74.968V38.4797H85.1106V38.093C85.1106 37.3898 84.9817 36.7629 84.7239 36.2121C84.4778 35.6496 84.1028 35.2043 83.5989 34.8762C83.095 34.548 82.4505 34.384 81.6653 34.384C80.9973 34.384 80.4231 34.5305 79.9427 34.8234C79.4622 35.1164 79.0696 35.5266 78.7649 36.0539C78.472 36.5812 78.2493 37.2023 78.097 37.9172C77.9563 38.6203 77.886 39.3937 77.886 40.2375V40.9406C77.886 41.7023 77.9915 42.4055 78.2024 43.05C78.4251 43.6945 78.7356 44.2512 79.1341 44.7199C79.5442 45.1887 80.0364 45.5519 80.6106 45.8098C81.1966 46.0676 81.8587 46.1965 82.597 46.1965C83.511 46.1965 84.3606 46.0207 85.1458 45.6691C85.9427 45.3058 86.6282 44.7609 87.2024 44.0344L89.6634 46.7062C89.2649 47.2805 88.72 47.8312 88.0286 48.3586C87.3489 48.8859 86.5286 49.3195 85.5677 49.6594C84.6067 49.9875 83.511 50.1516 82.2805 50.1516ZM97.9251 34.841V49.8H92.8626V30.7805H97.6087L97.9251 34.841ZM97.1868 39.6223H95.8157C95.8157 38.216 95.9973 36.9504 96.3606 35.8254C96.7239 34.6887 97.2337 33.7219 97.8899 32.925C98.5462 32.1164 99.3255 31.5012 100.228 31.0793C101.142 30.6457 102.161 30.4289 103.286 30.4289C104.177 30.4289 104.991 30.5578 105.73 30.8156C106.468 31.0734 107.101 31.4836 107.628 32.0461C108.167 32.6086 108.577 33.3527 108.859 34.2785C109.152 35.2043 109.298 36.3351 109.298 37.6711V49.8H104.2V37.6535C104.2 36.8098 104.083 36.1535 103.849 35.6848C103.615 35.216 103.269 34.8879 102.812 34.7004C102.366 34.5012 101.816 34.4016 101.159 34.4016C100.48 34.4016 99.888 34.5363 99.3841 34.8058C98.8919 35.0754 98.4817 35.4504 98.1536 35.9308C97.8372 36.3996 97.597 36.9504 97.4329 37.5832C97.2688 38.216 97.1868 38.8957 97.1868 39.6223ZM124.38 45.6516V22.8H129.478V49.8H124.89L124.38 45.6516ZM112.357 40.5187V40.1496C112.357 38.6965 112.521 37.3781 112.849 36.1945C113.177 34.9992 113.658 33.9738 114.29 33.1183C114.923 32.2629 115.702 31.6008 116.628 31.132C117.554 30.6633 118.609 30.4289 119.792 30.4289C120.906 30.4289 121.878 30.6633 122.71 31.132C123.554 31.6008 124.269 32.2687 124.855 33.1359C125.452 33.9914 125.933 35.0051 126.296 36.1769C126.659 37.3371 126.923 38.6086 127.087 39.9914V40.8C126.923 42.1242 126.659 43.3547 126.296 44.4914C125.933 45.6281 125.452 46.6242 124.855 47.4797C124.269 48.3234 123.554 48.9797 122.71 49.4484C121.866 49.9172 120.882 50.1516 119.757 50.1516C118.574 50.1516 117.519 49.9113 116.593 49.4308C115.679 48.9504 114.906 48.2766 114.273 47.4094C113.652 46.5422 113.177 45.5226 112.849 44.3508C112.521 43.1789 112.357 41.9016 112.357 40.5187ZM117.419 40.1496V40.5187C117.419 41.3039 117.478 42.0363 117.595 42.716C117.724 43.3957 117.929 43.9992 118.21 44.5266C118.503 45.0422 118.878 45.4465 119.335 45.7394C119.804 46.0207 120.372 46.1613 121.04 46.1613C121.908 46.1613 122.622 45.968 123.185 45.5812C123.747 45.1828 124.175 44.6379 124.468 43.9465C124.773 43.2551 124.949 42.4582 124.995 41.5558V39.2531C124.96 38.5148 124.855 37.8527 124.679 37.2668C124.515 36.6691 124.269 36.1594 123.941 35.7375C123.624 35.3156 123.226 34.9875 122.745 34.7531C122.277 34.5187 121.72 34.4016 121.075 34.4016C120.419 34.4016 119.857 34.5539 119.388 34.8586C118.919 35.1516 118.538 35.5558 118.245 36.0715C117.964 36.5871 117.753 37.1965 117.613 37.8996C117.484 38.591 117.419 39.341 117.419 40.1496ZM132.624 40.4836V40.1144C132.624 38.7199 132.824 37.4367 133.222 36.2648C133.62 35.0812 134.2 34.0558 134.962 33.1887C135.724 32.3215 136.661 31.6476 137.775 31.1672C138.888 30.675 140.165 30.4289 141.607 30.4289C143.048 30.4289 144.331 30.675 145.456 31.1672C146.581 31.6476 147.525 32.3215 148.286 33.1887C149.06 34.0558 149.646 35.0812 150.044 36.2648C150.443 37.4367 150.642 38.7199 150.642 40.1144V40.4836C150.642 41.8664 150.443 43.1496 150.044 44.3332C149.646 45.5051 149.06 46.5305 148.286 47.4094C147.525 48.2766 146.587 48.9504 145.474 49.4308C144.361 49.9113 143.083 50.1516 141.642 50.1516C140.2 50.1516 138.917 49.9113 137.792 49.4308C136.679 48.9504 135.736 48.2766 134.962 47.4094C134.2 46.5305 133.62 45.5051 133.222 44.3332C132.824 43.1496 132.624 41.8664 132.624 40.4836ZM137.687 40.1144V40.4836C137.687 41.2805 137.757 42.0246 137.898 42.716C138.038 43.4074 138.261 44.0168 138.566 44.5441C138.882 45.0598 139.292 45.4641 139.796 45.757C140.3 46.05 140.915 46.1965 141.642 46.1965C142.345 46.1965 142.949 46.05 143.452 45.757C143.956 45.4641 144.361 45.0598 144.665 44.5441C144.97 44.0168 145.193 43.4074 145.333 42.716C145.486 42.0246 145.562 41.2805 145.562 40.4836V40.1144C145.562 39.341 145.486 38.6144 145.333 37.9348C145.193 37.2433 144.964 36.634 144.648 36.1066C144.343 35.5676 143.939 35.1457 143.435 34.841C142.931 34.5363 142.322 34.384 141.607 34.384C140.892 34.384 140.283 34.5363 139.779 34.841C139.286 35.1457 138.882 35.5676 138.566 36.1066C138.261 36.634 138.038 37.2433 137.898 37.9348C137.757 38.6144 137.687 39.341 137.687 40.1144Z" fill="white"/>
<path d="M177.167 24.2062H182.423V41.1164C182.423 43.0851 182.001 44.7433 181.158 46.091C180.325 47.4387 179.171 48.4523 177.695 49.132C176.23 49.8117 174.542 50.1516 172.632 50.1516C170.722 50.1516 169.023 49.8117 167.534 49.132C166.058 48.4523 164.898 47.4387 164.054 46.091C163.222 44.7433 162.806 43.0851 162.806 41.1164V24.2062H168.079V41.1164C168.079 42.2648 168.261 43.2023 168.624 43.9289C168.988 44.6555 169.509 45.1887 170.189 45.5285C170.88 45.8683 171.695 46.0383 172.632 46.0383C173.593 46.0383 174.408 45.8683 175.075 45.5285C175.755 45.1887 176.271 44.6555 176.622 43.9289C176.986 43.2023 177.167 42.2648 177.167 41.1164V24.2062ZM198.208 24.2062V49.8H192.952V24.2062H198.208ZM206.083 24.2062V28.3371H185.2V24.2062H206.083ZM214.697 24.2062V49.8H209.441V24.2062H214.697ZM236.089 45.6867V49.8H223.204V45.6867H236.089ZM224.909 24.2062V49.8H219.636V24.2062H224.909ZM252.437 43.1027C252.437 42.6457 252.366 42.2355 252.226 41.8723C252.097 41.4973 251.851 41.1574 251.488 40.8527C251.124 40.5363 250.615 40.2258 249.958 39.9211C249.302 39.6164 248.452 39.3 247.409 38.9719C246.249 38.5969 245.148 38.175 244.105 37.7062C243.074 37.2375 242.159 36.6926 241.363 36.0715C240.577 35.4387 239.956 34.7062 239.499 33.8742C239.054 33.0422 238.831 32.0754 238.831 30.9738C238.831 29.9074 239.066 28.9406 239.534 28.0734C240.003 27.1945 240.659 26.4445 241.503 25.8234C242.347 25.1906 243.343 24.7043 244.491 24.3644C245.652 24.0246 246.923 23.8547 248.306 23.8547C250.193 23.8547 251.839 24.1945 253.245 24.8742C254.652 25.5539 255.741 26.4855 256.515 27.6691C257.3 28.8527 257.693 30.2062 257.693 31.7297H252.454C252.454 30.9797 252.296 30.3234 251.98 29.7609C251.675 29.1867 251.206 28.7355 250.574 28.4074C249.952 28.0793 249.167 27.9152 248.218 27.9152C247.304 27.9152 246.542 28.0558 245.933 28.3371C245.324 28.6066 244.866 28.9758 244.562 29.4445C244.257 29.9016 244.105 30.4172 244.105 30.9914C244.105 31.425 244.21 31.8176 244.421 32.1691C244.644 32.5207 244.972 32.8488 245.406 33.1535C245.839 33.4582 246.372 33.7453 247.005 34.0148C247.638 34.2844 248.37 34.548 249.202 34.8058C250.597 35.2277 251.822 35.7023 252.876 36.2297C253.943 36.757 254.833 37.3488 255.548 38.0051C256.263 38.6613 256.802 39.4055 257.165 40.2375C257.529 41.0695 257.71 42.0129 257.71 43.0676C257.71 44.1808 257.493 45.1769 257.06 46.0558C256.626 46.9348 255.999 47.6789 255.179 48.2883C254.359 48.8976 253.38 49.3605 252.243 49.6769C251.107 49.9933 249.835 50.1516 248.429 50.1516C247.163 50.1516 245.915 49.9875 244.685 49.6594C243.454 49.3195 242.335 48.8098 241.327 48.1301C240.331 47.4504 239.534 46.5832 238.937 45.5285C238.339 44.4738 238.04 43.2258 238.04 41.7844H243.331C243.331 42.5812 243.454 43.2551 243.7 43.8058C243.947 44.3566 244.292 44.8019 244.738 45.1418C245.195 45.4816 245.734 45.7277 246.355 45.8801C246.988 46.0324 247.679 46.1086 248.429 46.1086C249.343 46.1086 250.093 45.9797 250.679 45.7219C251.277 45.4641 251.716 45.1066 251.997 44.6496C252.29 44.1926 252.437 43.6769 252.437 43.1027Z" fill="#980000"/>
<path fill-rule="evenodd" clip-rule="evenodd" d="M132.616 0H22C9.84974 0 0 9.84974 0 22V50C0 62.1503 9.84975 72 22 72H95.6901L99.2801 65H22C13.7157 65 7 58.2843 7 50V22C7 13.7157 13.7157 7 22 7H129.026L132.616 0ZM158.059 65H258.8C267.084 65 273.8 58.2843 273.8 50V22C273.8 13.7157 267.084 7 258.8 7H187.805L191.395 0H258.8C270.95 0 280.8 9.84974 280.8 22V50C280.8 62.1503 270.95 72 258.8 72H154.469L158.059 65Z" fill="#980000"/>
</svg>
