<svg width="93" height="57" viewBox="0 0 93 57" fill="none" xmlns="http://www.w3.org/2000/svg">
<path d="M38.4068 36.8205L36.6828 37.8725L34.9588 43.5151L26.9135 44.2802L25.2853 46.7668V48.8708L31.0319 56.4262L28.7333 47.8188L34.9588 47.3406V50.401L39.173 46.7668L37.8321 44.2802L40.2266 38.4463L38.4068 36.8205Z" fill="#1C1B1B"/>
<path fill-rule="evenodd" clip-rule="evenodd" d="M57.9816 21.7575L46.4521 3.25168L34.9226 21.7575H57.9816ZM41.0735 12.3851L46.5479 21.4228L52.0223 12.3851L41.0735 12.3851Z" fill="#1C1B1B"/>
<path d="M51.7199 29.1695C67.504 20.1413 60.723 7.74664 55.3594 2.67785L60.9145 6.21644L93 0V9.27685L63.309 11.3809L64.4583 14.8238H91.0844L85.242 23.9094L64.4583 18.8406L63.309 23.0487L80.6447 28.4044L72.4078 34.6208L60.9145 26.7785L58.2327 29.7433L65.5118 36.7248L59.4779 39.0201L54.7848 31.2735L53.9228 32.2299L51.7199 29.1695Z" fill="#1C1B1B"/>
<path d="M41.2801 29.1695C25.496 20.1413 32.277 7.74664 37.6406 2.67785L32.0855 6.21644L0 0V9.27685L29.691 11.3809L28.5417 14.8238H1.91555L7.75798 23.9094L28.5417 18.8406L29.691 23.0487L12.3553 28.4044L20.5922 34.6208L32.0855 26.7785L34.7673 29.7433L27.4882 36.7248L33.5221 39.0201L38.2152 31.2735L39.0772 32.2299L41.2801 29.1695Z" fill="#1C1B1B"/>
<path d="M52.965 35.2903L46.6437 24.8658L40.035 35.2903L44.1535 39.2114V41.698L43.3872 42.4631L46.6437 54.7047L49.9001 42.4631L48.5592 41.698V39.2114L52.965 35.2903Z" fill="#1C1B1B"/>
<path d="M54.8805 36.9161L52.965 38.4463L54.8805 44.9497L53.827 46.6711L58.4243 50.2097L57.6581 47.0537L64.2667 47.8188L61.8723 57L68.0021 48.5839V46.6711L66.2781 44.0889L57.9454 43.6107L56.7003 37.8725L54.8805 36.9161Z" fill="#1C1B1B"/>
</svg>
